<svg width="30" height="30" viewBox="0 0 30 30" fill="none" xmlns="http://www.w3.org/2000/svg">
<path fill-rule="evenodd" clip-rule="evenodd" d="M7.29751 27.8743C5.10398 26.5646 3.28298 24.7144 2.00852 22.5004C0.729665 20.2915 0.0381777 17.7919 1.52588e-05 15.2398L0.217515 15.2818C4.64101 16.1532 9.67352 14.5784 13.809 12.0392C14.354 11.7053 14.8865 11.3523 15.4065 10.9803C16.026 11.7543 16.581 12.5402 17.0265 13.3141C17.589 14.2844 18.096 15.4393 18.549 16.6736C17.771 17.0506 17.017 17.4616 16.287 17.9065C12.099 20.4547 8.52602 24.1697 7.29902 27.8713L7.29751 27.8743ZM21.39 28.5717C19.5111 29.456 17.469 29.9407 15.3931 29.9949C13.3171 30.0491 11.2525 29.6717 9.33002 28.8867L9.43351 28.5807C10.428 25.5781 13.5135 22.226 17.4555 19.8278C18.0475 19.4678 18.6505 19.1343 19.2645 18.8274C19.6425 20.0722 19.971 21.3336 20.247 22.5199C20.661 24.3051 21.0108 26.1045 21.2955 27.9148L21.3075 27.9943L21.3105 28.0123V28.0183L21.39 28.5717Z" fill="#A9B1C1"/>
<path d="M21.339 17.9155C24.1695 16.8356 27.0555 16.4217 29.5545 16.9706L29.8605 17.0381C29.6792 18.3647 29.321 19.6611 28.7955 20.8926C27.6805 23.513 25.8391 25.7596 23.4885 27.3674L23.469 27.2489C23.1854 25.4908 22.8417 23.743 22.4385 22.0085C22.1203 20.6312 21.7536 19.267 21.339 17.9155ZM17.1795 9.59753C19.7715 7.3943 21.81 4.78312 22.6875 2.17494L22.7025 2.12995C24.8953 3.43938 26.7157 5.28904 27.99 7.50229C29.2702 9.71123 29.9623 12.2116 30 14.7644C27.0075 14.118 23.721 14.6144 20.616 15.7843C20.136 14.4884 19.5885 13.2541 18.975 12.1892C18.4423 11.2816 17.8421 10.4152 17.1795 9.59753ZM9.47849 2.18394C9.18102 1.94822 8.881 1.71574 8.57849 1.48653L8.54399 1.46253C11.1089 0.234958 13.9712 -0.234403 16.794 0.109695C18.1245 0.270175 19.4295 0.609133 20.67 1.11457L20.5545 1.45803C19.839 3.58477 18.0795 5.88249 15.7125 7.89224C14.6637 6.75988 13.5609 5.67875 12.408 4.65264C11.4573 3.79975 10.4808 2.97597 9.47999 2.18244M12.63 10.1225C8.75099 12.5042 4.30499 13.7955 0.64949 13.0756L0.13649 12.9736C0.416595 10.9191 1.11974 8.94489 2.20152 7.1758C3.28329 5.4067 4.7202 3.88112 6.42149 2.69538L6.91349 3.05383L6.91649 3.05533L6.93149 3.06583L6.98999 3.10933L7.22099 3.28181C8.48894 4.24735 9.71792 5.26304 10.905 6.32643C11.895 7.21432 12.942 8.2162 13.9245 9.27357C13.5045 9.56653 13.073 9.8495 12.63 10.1225Z" fill="#A9B1C1"/>
</svg>
