<svg width="30" height="30" viewBox="0 0 30 30" fill="none" xmlns="http://www.w3.org/2000/svg">
<path d="M15.0255 16.4895C17.91 16.5585 20.679 17.3895 23.07 18.8445C18.7365 23.397 12.588 26.5545 6.32251 27.237C5.00216 26.3003 3.84215 25.156 2.88751 23.8485C7.50301 23.1285 11.718 20.6985 14.634 16.989L15.0255 16.4895ZM27.66 23.0475C26.3065 25.1792 24.4362 26.9342 22.2229 28.1497C20.0096 29.3652 17.5251 30.0016 15 30C13.1348 30.0015 11.2857 29.655 9.54751 28.9785C15.402 27.672 20.913 24.4695 24.9225 20.1585C25.9513 21.0042 26.8709 21.9746 27.66 23.0475ZM29.436 14.037L29.439 14.04L29.994 14.5995C29.998 14.7325 30 14.866 30 15C30.001 17.0152 29.5959 19.0098 28.809 20.865C27.131 18.8497 25.0417 17.2163 22.6811 16.0742C20.3205 14.932 17.7431 14.3075 15.1215 14.2425C13.8933 12.1044 13.2454 9.68229 13.242 7.2165C19.3145 7.33099 25.1114 9.77246 29.436 14.037ZM13.419 4.9695C13.5974 3.85 13.9102 2.75611 14.3505 1.7115L15.0705 0C21.9465 0.0315 27.7305 4.6905 29.4675 11.022C24.9582 7.2435 19.2989 5.10934 13.4175 4.9695M12.8655 15.5985C11.488 17.3514 9.76354 18.8012 7.80001 19.857C5.43993 14.2073 5.2688 7.88105 7.32001 2.112C8.92593 1.15088 10.6991 0.501985 12.546 0.1995L12.276 0.8385C11.3029 3.14871 10.8729 5.65145 11.0193 8.15397C11.1657 10.6565 11.8846 13.092 13.1205 15.273L12.8655 15.5985ZM4.28851 4.5C1.53576 7.30112 -0.00464502 11.0727 1.05221e-05 15C1.05221e-05 17.4255 0.57601 19.7175 1.59901 21.7455C3.03001 21.606 4.42351 21.2805 5.74951 20.7855C3.58187 15.6374 3.07378 9.94146 4.29601 4.491L4.28851 4.5Z" fill="#A9B1C1"/>
</svg>
