<svg width="30" height="30" viewBox="0 0 30 30" fill="none" xmlns="http://www.w3.org/2000/svg">
<path d="M29.0421 17.8151L29.007 15.8866C28.0207 15.8637 27.0389 15.7465 26.0752 15.5367L25.7019 16.8201C25.6663 16.9537 25.6041 17.0788 25.5189 17.1882C25.4338 17.2976 25.3274 17.3889 25.2061 17.457C25.0847 17.525 24.9509 17.5683 24.8124 17.5843C24.6739 17.6003 24.5336 17.5886 24.3997 17.5501C24.2659 17.5116 24.1411 17.4469 24.0329 17.3598C23.9246 17.2728 23.835 17.1652 23.7693 17.0433C23.7037 16.9215 23.6633 16.7879 23.6505 16.6503C23.6378 16.5127 23.6529 16.3741 23.6951 16.2424L24.0684 14.9567C23.1314 14.6162 22.2301 14.1864 21.3769 13.6733L20.5975 14.7659C20.4375 14.9902 20.1941 15.1424 19.9209 15.1889C19.6477 15.2355 19.367 15.1726 19.1406 15.0141C18.9141 14.8555 18.7605 14.6144 18.7136 14.3437C18.6666 14.0729 18.7301 13.7948 18.8901 13.5705L19.6673 12.4808C18.8452 11.8199 18.0945 11.0762 17.4275 10.2616L16.3285 11.0339C16.2164 11.1124 16.0898 11.1682 15.9559 11.1982C15.822 11.2283 15.6835 11.2318 15.5482 11.2088C15.4129 11.1857 15.2835 11.1365 15.1674 11.0639C15.0513 10.9913 14.9508 10.8968 14.8716 10.7857C14.7924 10.6746 14.736 10.5492 14.7057 10.4165C14.6754 10.2839 14.6718 10.1466 14.6951 10.0125C14.7421 9.7418 14.8956 9.50065 15.1221 9.34213L16.2225 8.57132C15.7033 7.72616 15.2688 6.83275 14.925 5.90383L13.6319 6.2737C13.5001 6.31164 13.362 6.32347 13.2256 6.30854C13.0891 6.2936 12.957 6.25219 12.8367 6.18666C12.7164 6.12113 12.6104 6.03276 12.5245 5.92661C12.4387 5.82046 12.3748 5.6986 12.3366 5.56799C12.2983 5.43738 12.2863 5.30058 12.3014 5.1654C12.3165 5.03021 12.3583 4.89929 12.4244 4.78012C12.4905 4.66094 12.5797 4.55583 12.6869 4.4708C12.794 4.38577 12.917 4.32249 13.0488 4.28455L14.3404 3.91468C14.1655 3.1211 14.0549 2.31493 14.0097 1.50388C14.0012 1.35594 13.9952 1.20799 13.9917 1.06004L12.6315 1.03563C12.3576 1.03059 12.0967 0.91926 11.9049 0.725585C11.7131 0.53191 11.6056 0.271366 11.6057 0C8.85325 0.604481 6.31884 1.93997 4.27428 3.86322C2.22971 5.78647 0.752124 8.22492 0 10.917C0.29936 10.9355 0.580733 11.065 0.788211 11.2796C0.995689 11.4942 1.11409 11.7783 1.11988 12.0755L1.15273 13.8826C1.27069 13.8863 1.38865 13.8908 1.50586 13.8974C2.32442 13.9422 3.13805 14.0518 3.93898 14.2251L4.31227 12.9454C4.38959 12.6816 4.5695 12.4591 4.81242 12.3267C5.05534 12.1944 5.34138 12.1631 5.6076 12.2397C5.87382 12.3163 6.09841 12.4945 6.23199 12.7352C6.36556 12.9759 6.39716 13.2593 6.31984 13.5231L5.94654 14.8043C6.88258 15.1451 7.78276 15.5757 8.63425 16.09L9.40696 14.9996C9.56695 14.7753 9.81033 14.6231 10.0836 14.5766C10.3568 14.53 10.6375 14.5929 10.8639 14.7514C11.0903 14.91 11.2439 15.1511 11.2909 15.4218C11.3379 15.6926 11.2744 15.9707 11.1144 16.195L10.3387 17.2847C10.7497 17.6152 11.1432 17.9666 11.5176 18.3373C11.8919 18.7081 12.2465 19.098 12.5799 19.5054L13.6797 18.7353C13.9063 18.5768 14.1872 18.5139 14.4605 18.5606C14.7339 18.6073 14.9774 18.7597 15.1374 18.9842C15.2974 19.2088 15.3608 19.4871 15.3137 19.7579C15.2665 20.0288 15.1128 20.27 14.8861 20.4286L13.7842 21.2001C14.3023 22.0452 14.7366 22.938 15.081 23.8661L16.3786 23.4925C16.6448 23.4159 16.9308 23.4472 17.1737 23.5796C17.4167 23.7119 17.5966 23.9345 17.6739 24.1982C17.7512 24.462 17.7196 24.7454 17.586 24.9861C17.4525 25.2268 17.2279 25.4051 16.9617 25.4817L15.6663 25.8516C15.8724 26.7825 15.9899 27.7306 16.0172 28.6833L17.3812 28.7077C17.6979 28.7133 17.9994 28.8434 18.2193 29.0692C18.4393 29.295 18.5597 29.5982 18.5541 29.912C18.5536 29.9414 18.5516 29.9708 18.5481 30C21.3039 29.3498 23.8276 27.9652 25.8462 25.9959C27.8647 24.0266 29.3012 21.5478 30 18.8278C29.7421 18.8064 29.5015 18.691 29.3245 18.5039C29.1476 18.3169 29.047 18.0714 29.0421 17.8151Z" fill="#A9B1C1"/>
<path d="M18.3923 0.0835573C18.3885 0.355416 18.2785 0.614835 18.0863 0.805769C17.894 0.996703 17.6349 1.10382 17.3649 1.10399H17.3465L16.1119 1.08181C16.1156 1.17867 16.1193 1.27554 16.1244 1.37241C16.1607 2.0263 16.2452 2.67658 16.3771 3.31789L17.5734 2.96739C17.8268 2.91421 18.0908 2.95919 18.3127 3.09336C18.5346 3.22752 18.698 3.44101 18.7704 3.69119C18.8428 3.94137 18.8189 4.20985 18.7033 4.44302C18.5878 4.67619 18.3891 4.85691 18.147 4.9491L16.9521 5.29886C17.2192 6.00851 17.5468 6.69356 17.9311 7.34638L18.9476 6.6232C19.1703 6.46474 19.4464 6.40186 19.7152 6.44839C19.984 6.49491 20.2234 6.64703 20.3808 6.87129C20.5382 7.09554 20.6006 7.37356 20.5544 7.64418C20.5082 7.9148 20.3571 8.15585 20.1344 8.31431L19.1165 9.03823C19.3735 9.35027 19.6458 9.65074 19.9332 9.93961C20.2196 10.2287 20.5207 10.5016 20.8292 10.7604L21.5474 9.737C21.6258 9.62596 21.7251 9.53155 21.8397 9.45916C21.9543 9.38676 22.082 9.3378 22.2154 9.31508C22.3488 9.29235 22.4853 9.2963 22.6172 9.3267C22.7491 9.3571 22.8737 9.41335 22.984 9.49225C23.0943 9.57115 23.188 9.67114 23.26 9.78653C23.3319 9.90191 23.3805 10.0304 23.4031 10.1647C23.4256 10.299 23.4217 10.4365 23.3915 10.5693C23.3613 10.7021 23.3054 10.8276 23.2271 10.9386L22.5103 11.959C23.1586 12.3456 23.8387 12.6754 24.5432 12.9447L24.8928 11.7409C24.9688 11.4772 25.1458 11.2548 25.3848 11.1225C25.6237 10.9902 25.9051 10.9589 26.167 11.0355C26.4289 11.1121 26.6498 11.2902 26.7812 11.5308C26.9126 11.7714 26.9437 12.0547 26.8677 12.3184L26.5203 13.5207C27.2686 13.6776 28.0293 13.7679 28.7933 13.7906L28.7816 13.1251C28.7769 12.8507 28.8806 12.5856 29.07 12.3881C29.2593 12.1907 29.5188 12.077 29.7914 12.0722H29.8098C29.8736 12.0727 29.9373 12.0788 30 12.0907C29.44 9.15887 28.0446 6.45456 25.9841 4.30762C23.9236 2.16069 21.287 0.663947 18.396 0C18.3916 0.0295778 18.3931 0.0561979 18.3923 0.0835573ZM11.5585 29.7612C11.5641 29.4475 11.6932 29.1489 11.9174 28.9311C12.1416 28.7132 12.4426 28.594 12.7541 28.5995L13.985 28.6209C13.9586 27.8765 13.8697 27.1356 13.7192 26.4063L12.525 26.7553C12.3952 26.7932 12.2594 26.8051 12.1251 26.7901C11.9909 26.7752 11.8608 26.7337 11.7425 26.6682C11.6241 26.6027 11.5197 26.5143 11.4353 26.4081C11.3509 26.302 11.288 26.1801 11.2504 26.0495C11.2127 25.9189 11.201 25.7821 11.2158 25.6469C11.2307 25.5118 11.2718 25.3809 11.3369 25.2617C11.402 25.1425 11.4898 25.0374 11.5952 24.9524C11.7006 24.8674 11.8217 24.8041 11.9514 24.7662L13.1419 24.4187C12.8748 23.7093 12.5472 23.0245 12.1629 22.3719L11.1494 23.0936C10.9266 23.252 10.6505 23.3149 10.3817 23.2684C10.1129 23.2219 9.87353 23.0698 9.71614 22.8455C9.55876 22.6213 9.4963 22.3432 9.54251 22.0726C9.58872 21.802 9.73981 21.5609 9.96254 21.4025L10.979 20.6793C10.7219 20.3673 10.4509 20.0656 10.1638 19.7772C9.87662 19.4888 9.57623 19.2137 9.26851 18.9549L8.5495 19.9798C8.47157 20.0908 8.37268 20.1853 8.25848 20.2579C8.14428 20.3305 8.017 20.3797 7.88391 20.4027C7.75082 20.4257 7.61453 20.4221 7.48282 20.3921C7.3511 20.3622 7.22655 20.3063 7.11626 20.2279C7.00597 20.1494 6.91212 20.0498 6.84005 19.9349C6.76798 19.8199 6.71911 19.6917 6.69623 19.5577C6.67335 19.4237 6.6769 19.2865 6.70669 19.1539C6.73649 19.0213 6.79193 18.8959 6.86986 18.7848L7.58813 17.7615C6.93992 17.3742 6.25947 17.0444 5.55449 16.7758L5.21005 17.9789C5.13398 18.2426 4.95696 18.4652 4.71793 18.5975C4.4789 18.7299 4.19743 18.7612 3.93544 18.6847C3.67346 18.6081 3.45242 18.4298 3.32096 18.1892C3.18949 17.9485 3.15837 17.6651 3.23443 17.4013L3.58182 16.1968C2.94495 16.0634 2.29904 15.9784 1.64953 15.9424C1.58417 15.9387 1.51807 15.9365 1.4527 15.9335L1.46445 16.7166C1.46996 17.0303 1.3515 17.3333 1.13513 17.5591C0.918765 17.7848 0.622204 17.9148 0.310664 17.9204H0.289365C0.191729 17.92 0.0945245 17.9073 0 17.8827C0.553477 20.816 1.94297 23.5237 3.99895 25.6754C6.05492 27.827 8.68848 29.3297 11.5783 30C11.5635 29.9213 11.5569 29.8412 11.5585 29.7612Z" fill="#A9B1C1"/>
</svg>
