<svg width="32" height="23" viewBox="0 0 32 23" fill="none" xmlns="http://www.w3.org/2000/svg">
<path d="M16 11.5C7.43867 11.5 0.5 8.92448 0.5 5.75C0.5 2.57552 7.43867 0 16 0C24.5613 0 31.5 2.57552 31.5 5.75C31.5 8.92448 24.5613 11.5 16 11.5ZM0.5 17.25V10.7034C1.52324 11.4401 2.74023 12.0331 4.01777 12.5062C7.22676 13.6982 11.465 14.375 16 14.375C20.535 14.375 24.7732 13.6982 27.9822 12.5062C29.2658 12.0331 30.4768 11.4401 31.5 10.7034V17.25C31.5 20.4245 24.5613 23 16 23C7.43867 23 0.5 20.4245 0.5 17.25Z" fill="#A9B1C1"/>
</svg>
