<svg width="28" height="47" viewBox="0 0 28 47" fill="none" xmlns="http://www.w3.org/2000/svg">
<path d="M8.18462 47L4.55 44.9476L10.7808 34.2751L7.25 32.2227L4.13462 37.559L0.5 35.5065L11.1962 17.2402C9.88077 15.9061 8.89423 14.3839 8.23654 12.6736C7.57885 10.9632 7.25 9.2016 7.25 7.38865C7.25 6.15721 7.40577 4.93466 7.71731 3.721C8.02885 2.50735 8.53077 1.33543 9.22308 0.20524L12.7538 2.25764C12.2692 3.0444 11.9231 3.85715 11.7154 4.6959C11.5077 5.53464 11.4038 6.39802 11.4038 7.28603C11.4038 9.09898 11.8538 10.8011 12.7538 12.3924C13.6538 13.9837 14.9346 15.2576 16.5962 16.214L21.2692 18.8821C23.4154 20.1135 24.9904 21.8841 25.9942 24.1937C26.9981 26.5033 27.5 28.6666 27.5 30.6834C27.5 31.9833 27.3269 33.2489 26.9808 34.4803C26.6346 35.7118 26.15 36.8748 25.5269 37.9694L21.8923 35.917C22.3769 35.0961 22.7231 34.258 22.9308 33.4028C23.1385 32.5477 23.2423 31.6754 23.2423 30.786C23.2423 29.6914 23.0865 28.631 22.775 27.6048C22.4635 26.5786 21.9615 25.6208 21.2692 24.7314L8.18462 47ZM22.3077 16.4192C21.1654 16.4192 20.1878 16.0176 19.3751 15.2145C18.5623 14.4113 18.1552 13.4446 18.1538 12.3144C18.1525 11.1842 18.5595 10.2182 19.3751 9.41642C20.1906 8.61461 21.1682 8.21234 22.3077 8.20961C23.4472 8.20687 24.4255 8.60914 25.2424 9.41642C26.0593 10.2237 26.4657 11.1897 26.4615 12.3144C26.4574 13.4391 26.051 14.4058 25.2424 15.2145C24.4338 16.0231 23.4555 16.4247 22.3077 16.4192ZM17.1154 6.15721C16.2154 6.15721 15.4712 5.84935 14.8827 5.23362C14.2942 4.6179 14 3.89956 14 3.0786C14 2.18923 14.3115 1.45378 14.9346 0.872271C15.5577 0.290757 16.2846 0 17.1154 0C18.0154 0 18.7596 0.30786 19.3481 0.923581C19.9365 1.5393 20.2308 2.25764 20.2308 3.0786C20.2308 3.96798 19.9192 4.70342 19.2962 5.28493C18.6731 5.86645 17.9462 6.15721 17.1154 6.15721Z" fill="#A9B1C1"/>
</svg>
