<svg width="30" height="30" viewBox="0 0 30 30" fill="none" xmlns="http://www.w3.org/2000/svg">
<path d="M29.8695 5.89593C29.7672 4.40031 29.1269 2.99233 28.0669 1.93231C27.007 0.872276 25.5991 0.231892 24.1035 0.129553C22.2951 -0.0128269 20.4793 -0.0378809 18.6676 0.0545478L29.946 11.3323C30.038 9.52041 30.0124 7.70449 29.8695 5.89593ZM0.130578 24.1041C0.23291 25.5997 0.873253 27.0077 1.93321 28.0677C2.99317 29.1278 4.40106 29.7681 5.89657 29.8705C7.49857 29.992 9.36607 30.0505 11.3341 29.9455L0.0540778 18.6647C-0.0509221 20.6344 0.00907764 22.502 0.130578 24.1041Z" fill="#A9B1C1"/>
<path fill-rule="evenodd" clip-rule="evenodd" d="M0 15.7808C0.566067 11.803 1.93598 7.75465 4.84608 4.84608C7.75465 1.93598 11.8046 0.566067 15.7808 9.15861e-10L30 14.2192C29.4339 18.1954 28.064 22.2453 25.1539 25.1539C22.2453 28.064 18.197 29.4339 14.2192 30L0 15.7808ZM14.911 9.10922C15.0179 9.00231 15.1447 8.91749 15.2844 8.85963C15.424 8.80176 15.5737 8.77198 15.7248 8.77198C15.876 8.77198 16.0257 8.80176 16.1653 8.85963C16.3049 8.91749 16.4318 9.00231 16.5387 9.10922L17.9009 10.4715L19.2647 9.10922C19.37 8.99618 19.497 8.90552 19.6382 8.84264C19.7793 8.77975 19.9316 8.74594 20.0861 8.74321C20.2406 8.74049 20.3941 8.7689 20.5373 8.82677C20.6806 8.88464 20.8107 8.97077 20.92 9.08002C21.0292 9.18927 21.1154 9.31941 21.1732 9.46268C21.2311 9.60594 21.2595 9.75939 21.2568 9.91387C21.2541 10.0684 21.2202 10.2207 21.1574 10.3618C21.0945 10.503 21.0038 10.63 20.8908 10.7353L19.5285 12.0991L20.8908 13.4613C21.0038 13.5667 21.0945 13.6937 21.1574 13.8348C21.2202 13.976 21.2541 14.1283 21.2568 14.2828C21.2595 14.4373 21.2311 14.5907 21.1732 14.734C21.1154 14.8773 21.0292 15.0074 20.92 15.1166C20.8107 15.2259 20.6806 15.312 20.5373 15.3699C20.3941 15.4278 20.2406 15.4562 20.0861 15.4535C19.9316 15.4507 19.7793 15.4169 19.6382 15.354C19.497 15.2911 19.37 15.2005 19.2647 15.0874L17.9009 13.7252L16.6276 15L17.9899 16.3622C18.1931 16.5803 18.3037 16.8688 18.2985 17.1669C18.2932 17.465 18.1725 17.7493 17.9617 17.9601C17.7509 18.1709 17.4665 18.2917 17.1684 18.297C16.8704 18.3022 16.5819 18.1916 16.3638 17.9883L15 16.6292L13.7267 17.9024L15.089 19.2662C15.1988 19.3724 15.2864 19.4994 15.3466 19.6398C15.4069 19.7802 15.4385 19.9312 15.4398 20.0839C15.441 20.2367 15.4119 20.3882 15.3539 20.5296C15.296 20.6709 15.2105 20.7994 15.1025 20.9073C14.9944 21.0153 14.8659 21.1007 14.7245 21.1585C14.583 21.2163 14.4315 21.2453 14.2787 21.2439C14.126 21.2425 13.975 21.2107 13.8347 21.1503C13.6943 21.09 13.5674 21.0022 13.4613 20.8923L12.0991 19.5301L10.7369 20.8923C10.5188 21.0955 10.2303 21.2062 9.93221 21.2009C9.63414 21.1957 9.34975 21.0749 9.13895 20.8641C8.92815 20.6533 8.80741 20.3689 8.80215 20.0709C8.79689 19.7728 8.90753 19.4843 9.11076 19.2662L10.4715 17.9024L9.10922 16.5402C8.99618 16.4349 8.90552 16.3078 8.84264 16.1667C8.77975 16.0256 8.74594 15.8732 8.74321 15.7187C8.74049 15.5643 8.7689 15.4108 8.82677 15.2675C8.88464 15.1243 8.97077 14.9941 9.08002 14.8849C9.18927 14.7756 9.31941 14.6895 9.46268 14.6316C9.60594 14.5738 9.75939 14.5454 9.91387 14.5481C10.0684 14.5508 10.2207 14.5846 10.3618 14.6475C10.503 14.7104 10.63 14.8011 10.7353 14.9141L12.0991 16.2763L13.3724 15.0031L12.0101 13.6393C11.8006 13.4222 11.6848 13.1315 11.6876 12.8298C11.6903 12.5282 11.8115 12.2397 12.0249 12.0264C12.2383 11.8132 12.5269 11.6924 12.8286 11.6899C13.1303 11.6874 13.4209 11.8035 13.6378 12.0132L15 13.3739L16.2733 12.1006L14.9126 10.7384C14.6971 10.5227 14.5761 10.2302 14.5761 9.92534C14.5761 9.62045 14.6971 9.32802 14.9126 9.11229" fill="#A9B1C1"/>
</svg>
