<svg width="37" height="37" viewBox="0 0 37 37" fill="none" xmlns="http://www.w3.org/2000/svg">
<path d="M30.7367 31.4003C30.7367 31.8472 30.5568 32.2758 30.2366 32.5919C29.9163 32.9079 29.482 33.0854 29.0291 33.0854C28.5762 33.0854 28.1419 32.9079 27.8217 32.5919C27.5014 32.2758 27.3215 31.8472 27.3215 31.4003V11.1788C27.3215 10.7319 27.1416 10.3032 26.8214 9.98723C26.5011 9.6712 26.0668 9.49366 25.6139 9.49366H1.70759C1.25471 9.49366 0.820379 9.6712 0.500143 9.98723C0.179907 10.3032 0 10.7319 0 11.1788V33.0854C0 33.9793 0.359813 34.8365 1.00029 35.4686C1.64076 36.1006 2.50943 36.4557 3.41519 36.4557H29.0291C31.8535 36.4557 34.1519 34.1875 34.1519 31.4003V14.549H30.7367V31.4003ZM17.0759 14.549H22.1987V17.9193H17.0759V14.549ZM17.0759 21.2896H22.1987V24.6598H17.0759V21.2896ZM5.12278 14.549H13.6608V24.6598H5.12278V14.549ZM5.12278 31.4003V28.0301H22.1987V31.4003H5.12278Z" fill="#A9B1C1"/>
<path d="M19 9C19 4.02944 23.0294 0 28 0C32.9706 0 37 4.02944 37 9C37 13.9706 32.9706 18 28 18C23.0294 18 19 13.9706 19 9Z" fill="#1A1E25"/>
<path d="M24.4475 15V13.5296L29.0552 9.06761C29.442 8.69577 29.7293 8.36901 29.9171 8.08732C30.105 7.80563 30.2265 7.54648 30.2818 7.30986C30.3481 7.06197 30.3812 6.83099 30.3812 6.6169C30.3812 6.07606 30.1989 5.65915 29.8343 5.3662C29.4696 5.06197 28.9337 4.90986 28.2265 4.90986C27.663 4.90986 27.1492 5.01127 26.6851 5.21408C26.232 5.4169 25.8398 5.72676 25.5083 6.14366L24 4.96056C24.453 4.34085 25.0608 3.86197 25.8232 3.52394C26.5967 3.17465 27.4586 3 28.4088 3C29.2486 3 29.9779 3.14084 30.5967 3.42253C31.2265 3.69296 31.7072 4.08169 32.0387 4.58873C32.3812 5.09577 32.5525 5.69859 32.5525 6.39718C32.5525 6.78028 32.5028 7.16338 32.4033 7.54648C32.3039 7.91831 32.116 8.31268 31.8398 8.72958C31.5635 9.14648 31.1602 9.61409 30.6298 10.1324L26.6685 13.969L26.221 13.1408H33V15H24.4475Z" fill="#00B74A"/>
</svg>
