<svg width="150" height="50" viewBox="0 0 150 50" fill="none" xmlns="http://www.w3.org/2000/svg">
<g clip-path="url(#clip0_1_2916)">
<path d="M40.3 29.65C38.5 32.35 35.3 33.75 30.8 33.75H30.6C30.9 33.75 31.1 33.85 31.4 33.95C32.8 34.15 33.5 35.05 33.5 36.75V38.15C33.7 39.55 32.8 40.75 31.4 40.95C31.2 40.95 30.9 40.95 30.7 40.95H11.2V49.25V49.35H30.8C38.3 49.35 42 45.65 42 38.15V36.75C42.1 34.25 41.5 31.85 40.3 29.65Z" fill="white"/>
<path d="M30 7.15H0V49.25H9V32.65H30C35.7 32.65 39.4 30.65 41 26.55C41.7 24.65 42.1 22.65 42 20.65V19.15C42.1 11.15 38 7.15 30 7.15Z" fill="#00B74A"/>
<path d="M19 5.85L18.9 5.75L22.6 2.05L22.7 2.15L19 5.85Z" fill="#F5F5F5"/>
<path d="M18.6 5.75L14.9 2.05L15 1.95L18.7 5.65L18.6 5.75Z" fill="#F5F5F5"/>
<path d="M14.8 2.95C15.3523 2.95 15.8 2.50229 15.8 1.95C15.8 1.39772 15.3523 0.950001 14.8 0.950001C14.2477 0.950001 13.8 1.39772 13.8 1.95C13.8 2.50229 14.2477 2.95 14.8 2.95Z" fill="#F5F5F5"/>
<path d="M14.8 3.05C14.2 3.05 13.8 2.55 13.8 2.05C13.8 1.55 14.3 1.05 14.8 1.05C15.4 1.05 15.8 1.55 15.8 2.05C15.9 2.55 15.4 3.05 14.8 3.05ZM14.8 1.05C14.3 1.05 13.9 1.45 13.9 1.95C13.9 2.45 14.3 2.85 14.8 2.85C15.3 2.85 15.7 2.45 15.7 1.95C15.7 1.45 15.3 1.05 14.8 1.05Z" fill="#5E5F5F"/>
<path d="M22.7 2.75C23.2523 2.75 23.7 2.30228 23.7 1.75C23.7 1.19772 23.2523 0.75 22.7 0.75C22.1477 0.75 21.7 1.19772 21.7 1.75C21.7 2.30228 22.1477 2.75 22.7 2.75Z" fill="#F5F5F5"/>
<path d="M22.7 2.85C22.1 2.85 21.7 2.35 21.7 1.85C21.7 1.25 22.2 0.849998 22.7 0.849998C23.2 0.849998 23.7 1.35 23.7 1.85C23.8 2.35 23.3 2.85 22.7 2.85ZM22.7 0.849998C22.2 0.849998 21.8 1.25 21.8 1.75C21.8 2.25 22.2 2.65 22.7 2.65C23.2 2.65 23.6 2.25 23.6 1.75C23.7 1.25 23.2 0.849998 22.7 0.849998Z" fill="#5E5F5F"/>
<path d="M21.6 5.35H16.2V7.35H21.6V5.35Z" fill="#F5F5F5"/>
<path d="M21.7 7.35H16.1V5.25H21.7V7.35ZM16.2 7.25H21.5V5.35H16.2V7.25Z" fill="#5E5F5F"/>
<path d="M18.3 10.65H19.3H19.6C24.1 11.05 27.4 15.15 26.9 19.55C26.8 20.25 26.7 20.95 26.4 21.55C25.6 23.85 23.8 25.75 21.5 26.45C17.2 27.95 12.5 25.65 11 21.35C10.9 20.95 10.7 20.45 10.7 20.05C10.6 19.75 10.6 19.45 10.6 19.15V18.15C10.6 18.05 10.6 18.05 10.6 17.95C10.6 17.65 10.7 17.35 10.7 17.05C11.3 13.75 14 11.15 17.3 10.55C17.7 10.75 18 10.65 18.3 10.65ZM18.5 14.35C18.5 14.05 18.5 13.65 18.5 13.35C18.5 13.25 18.5 13.25 18.4 13.15C17.8 12.65 17.1 12.25 16.5 11.75C16.4 11.75 16.4 11.75 16.3 11.75C14.8 12.25 13.5 13.25 12.6 14.65C12.6 14.75 12.5 14.85 12.6 14.85C12.8 15.55 13 16.25 13.2 16.85C13.2 16.95 13.3 16.95 13.4 17.05C14 17.25 14.7 17.45 15.3 17.65C15.4 17.65 15.4 17.65 15.5 17.65C16.5 16.95 17.5 16.25 18.4 15.55C18.5 15.55 18.5 15.45 18.5 15.35C18.5 14.95 18.5 14.65 18.5 14.35ZM19.2 14.35C19.2 14.65 19.2 15.05 19.2 15.35C19.2 15.45 19.2 15.55 19.3 15.55C20.3 16.25 21.2 16.95 22.2 17.65C22.3 17.65 22.3 17.65 22.4 17.65C23 17.45 23.7 17.25 24.3 17.05C24.4 17.05 24.4 16.95 24.5 16.85C24.7 16.15 24.9 15.45 25.1 14.85C25.1 14.75 25.1 14.65 25.1 14.65C24.2 13.35 22.9 12.25 21.4 11.75C21.3 11.75 21.3 11.75 21.2 11.75C20.6 12.25 19.9 12.65 19.3 13.15C19.2 13.15 19.2 13.25 19.2 13.35C19.2 13.65 19.2 13.95 19.2 14.35ZM18.9 22.45C18.3 22.45 17.7 22.45 17 22.45C16.9 22.45 16.8 22.45 16.8 22.55C16.3 23.05 15.8 23.55 15.3 24.05C15.2 24.15 15.2 24.15 15.2 24.25C15.3 24.65 15.3 25.05 15.4 25.45C15.4 25.55 15.5 25.65 15.6 25.65C16.4 26.05 17.3 26.25 18.2 26.35C19.5 26.45 20.8 26.25 21.9 25.65C22 25.65 22 25.55 22 25.55C22.1 25.05 22.2 24.55 22.2 24.05C22.2 23.95 22.2 23.95 22.1 23.85C21.7 23.45 21.3 23.05 20.9 22.65C20.8 22.55 20.8 22.55 20.7 22.55C20.2 22.45 19.6 22.45 18.9 22.45ZM11.3 19.05C11.4 20.55 11.8 21.95 12.7 23.15C12.8 23.25 12.9 23.35 13 23.35C13.6 23.45 14.1 23.55 14.7 23.65C14.8 23.65 14.9 23.65 14.9 23.55C15.4 23.05 15.8 22.65 16.3 22.15C16.4 22.05 16.4 22.05 16.4 21.95C16 20.75 15.6 19.65 15.3 18.45C15.3 18.35 15.2 18.35 15.1 18.25C14.5 18.05 13.9 17.85 13.2 17.65C13.1 17.65 13 17.65 13 17.65C12.5 17.95 12 18.35 11.6 18.65C11.4 18.85 11.3 18.95 11.3 19.05ZM26.3 19.15C26.3 19.05 26.3 18.95 26.2 18.85C25.7 18.45 25.2 18.15 24.7 17.75C24.6 17.75 24.6 17.75 24.5 17.75C23.9 17.95 23.2 18.15 22.6 18.35C22.5 18.35 22.5 18.45 22.5 18.45C22.1 19.55 21.8 20.65 21.4 21.85C21.4 21.95 21.4 21.95 21.4 22.05C21.8 22.45 22.3 22.95 22.7 23.35C22.7 23.35 22.8 23.45 22.9 23.45C23.6 23.35 24.2 23.25 24.9 23.15C25 23.15 25 23.15 25.1 23.05C25.9 21.75 26.3 20.45 26.3 19.15Z" fill="#5E5F5F"/>
<path d="M18.5 14.35C18.5 14.65 18.5 15.05 18.5 15.35C18.5 15.45 18.5 15.45 18.4 15.55C17.4 16.25 16.4 16.95 15.5 17.65C15.4 17.65 15.4 17.65 15.3 17.65C14.7 17.45 14 17.25 13.4 17.05C13.3 17.05 13.3 16.95 13.2 16.85C13 16.15 12.8 15.45 12.6 14.85C12.6 14.75 12.6 14.65 12.6 14.65C13.5 13.35 14.8 12.25 16.3 11.75C16.4 11.75 16.4 11.75 16.5 11.75C17.1 12.25 17.8 12.65 18.4 13.15C18.5 13.15 18.5 13.25 18.5 13.35C18.5 13.65 18.5 13.95 18.5 14.35Z" fill="white"/>
<path d="M19.2 14.35C19.2 14.05 19.2 13.65 19.2 13.35C19.2 13.25 19.2 13.25 19.3 13.15C19.9 12.65 20.6 12.25 21.2 11.75C21.3 11.75 21.3 11.75 21.4 11.75C22.9 12.25 24.2 13.25 25.1 14.65C25.1 14.75 25.2 14.75 25.1 14.85C24.9 15.55 24.7 16.25 24.5 16.85C24.5 16.95 24.4 16.95 24.3 17.05C23.7 17.25 23 17.45 22.4 17.65C22.3 17.65 22.3 17.65 22.2 17.65C21.2 16.95 20.3 16.25 19.3 15.55C19.2 15.45 19.2 15.45 19.2 15.35C19.2 14.95 19.2 14.65 19.2 14.35Z" fill="white"/>
<path d="M18.9 22.45C19.5 22.45 20.1 22.45 20.8 22.45C20.9 22.45 21 22.45 21 22.55C21.4 22.95 21.8 23.35 22.2 23.75C22.3 23.85 22.3 23.85 22.3 23.95C22.2 24.45 22.1 24.95 22.1 25.45C22.1 25.55 22 25.55 22 25.55C20.8 26.05 19.6 26.35 18.3 26.25C17.4 26.15 16.5 25.95 15.7 25.55C15.6 25.55 15.5 25.45 15.5 25.35C15.4 24.95 15.4 24.55 15.3 24.15C15.3 24.05 15.3 23.95 15.4 23.95C15.9 23.45 16.4 22.95 16.9 22.45C17 22.35 17 22.35 17.1 22.35C17.7 22.45 18.3 22.45 18.9 22.45Z" fill="white"/>
<path d="M11.3 19.05C11.3 18.95 11.3 18.85 11.5 18.75C12 18.45 12.5 18.05 12.9 17.75C13 17.65 13.1 17.65 13.1 17.75C13.7 17.95 14.3 18.15 15 18.35C15.1 18.35 15.1 18.45 15.2 18.55C15.6 19.75 15.9 20.85 16.3 22.05C16.3 22.15 16.3 22.25 16.2 22.25C15.7 22.65 15.3 23.15 14.8 23.65C14.7 23.75 14.7 23.75 14.6 23.75C14 23.65 13.5 23.55 12.9 23.45C12.8 23.45 12.7 23.35 12.6 23.25C11.8 21.95 11.4 20.55 11.3 19.05Z" fill="white"/>
<path d="M26.3 19.15C26.2 20.55 25.8 21.85 25.1 22.95C25.1 23.05 25 23.05 24.9 23.05C24.2 23.15 23.6 23.25 22.9 23.35C22.8 23.35 22.8 23.35 22.7 23.25C22.3 22.85 21.8 22.35 21.4 21.95C21.4 21.95 21.3 21.85 21.4 21.75C21.8 20.65 22.1 19.55 22.5 18.35C22.5 18.25 22.6 18.25 22.6 18.25C23.2 18.05 23.9 17.85 24.5 17.65C24.6 17.65 24.6 17.65 24.7 17.65C25.2 18.05 25.7 18.35 26.2 18.75C26.4 18.85 26.3 19.05 26.3 19.15Z" fill="white"/>
<path d="M58.6 15.45C60.9 16.35 62 18.25 62 21.15C62.2 23.55 60.8 25.85 58.6 26.85C57.5 27.35 56.4 27.65 55.2 27.65H48.1V9.85H55.6C56.4 9.85 57.3 10.05 58 10.55C59 11.05 59.5 12.15 59.5 13.25C59.7 14.05 59.3 14.95 58.6 15.45ZM49.9 25.95H55.2C56.1 25.95 57 25.75 57.8 25.35C59.4 24.55 60.3 22.95 60.2 21.15C60.4 18.95 58.7 17.05 55.3 15.55C56.1 15.15 56.8 14.65 57.4 13.95C57.6 13.75 57.7 13.45 57.7 13.15C57.7 12.55 57.3 12.05 56.8 11.85C56.4 11.75 56 11.65 55.6 11.65H49.8L49.9 25.95Z" fill="white"/>
<path d="M77.1 11.55H65.1V25.95H77.1V27.75H63.3V9.85H77.1V11.55ZM77.1 22.75H66.6V20.95H77V22.75H77.1Z" fill="white"/>
<path d="M91.9 11.55H86V27.75H84.2V11.55H78.3V9.85H91.9V11.55Z" fill="white"/>
<path d="M106.7 11.55H100.8V27.75H99V11.55H93.1V9.85H106.7V11.55Z" fill="white"/>
<path d="M109.7 27.75H107.9V9.85H109.7V27.75Z" fill="white"/>
<path d="M128.5 9.85V27.95L114 13.75V27.75H112.2V9.45L126.7 23.85V9.85H128.5Z" fill="white"/>
<path d="M147.3 22.75C146.7 24.05 145.8 25.15 144.6 26.05C143 27.35 141 27.95 139 27.95C133.9 27.95 129.8 23.85 129.8 18.75C129.8 16.35 130.8 13.95 132.5 12.25C135.8 8.95 141 8.65 144.7 11.55C146.4 12.85 147.5 14.65 148 16.65H146.3C145.8 15.05 144.9 13.75 143.6 12.75C140.3 10.25 135.5 10.95 133 14.25C130.5 17.55 131.2 22.35 134.5 24.85C137.2 26.85 140.8 26.85 143.5 24.95C144.8 24.05 145.8 22.65 146.2 21.15H149.7V22.75H147.3Z" fill="white"/>
<path d="M54.1 30.95C55.3 30.95 56.5 31.25 57.5 31.75C60.7 33.45 61.8 37.45 60.1 40.55C59.5 41.65 58.6 42.55 57.5 43.15C56.4 43.65 55.3 43.95 54.1 43.95H50.1V48.75H48.3V30.95H54.1ZM50.2 32.75V42.35H54.2C55.1 42.35 56 42.15 56.8 41.75C59.1 40.45 59.9 37.55 58.6 35.25C58.2 34.55 57.6 33.85 56.8 33.45C55.9 32.95 55 32.75 54.1 32.75H50.2Z" fill="white"/>
<path d="M74.8 37.55C74.9 39.55 74 41.55 72.3 42.75C71.4 43.45 70.2 43.85 69.1 44.05L74.2 48.95H71.6L66.6 44.05L64.9 42.35H68C68.9 42.35 69.8 42.15 70.6 41.75C72.9 40.45 73.7 37.45 72.4 35.15C72 34.45 71.4 33.85 70.6 33.35C69.8 32.95 68.9 32.75 68 32.75H64V48.95H62.2V30.95H68C69.2 30.95 70.4 31.25 71.4 31.75C73.6 32.85 74.9 35.05 74.8 37.55Z" fill="white"/>
<path d="M89.8 32.75H77.8V47.15H89.8V48.95H76V30.95H89.8V32.75ZM89.7 43.95H79.3V42.15H89.7V43.95Z" fill="white"/>
<path d="M108.7 30.35V48.95H107V36.95L99.8 49.15L92.6 37.05V48.85H91V30.25L99.9 45.55L108.7 30.35Z" fill="white"/>
<path d="M113.1 48.85H111.3V30.95H113.1V48.85Z" fill="white"/>
<path d="M129.5 32.75H117.5V47.15H129.5V48.95H115.7V30.95H129.5V32.75ZM129.4 43.95H119V42.15H129.4V43.95Z" fill="white"/>
<path d="M143.3 37.55C143.4 39.55 142.5 41.55 140.8 42.75C139.9 43.45 138.8 43.85 137.6 44.05L142.7 48.95H140.1L135.1 44.05L133.4 42.35H136.5C137.4 42.35 138.3 42.15 139.1 41.75C141.4 40.45 142.2 37.45 140.9 35.15C140.5 34.45 139.9 33.85 139.1 33.35C138.3 32.95 137.4 32.75 136.5 32.75H132.5V48.95H130.7V30.95H136.5C137.7 30.95 138.9 31.25 139.9 31.75C142.1 32.85 143.4 35.05 143.3 37.55Z" fill="white"/>
<path d="M138.4 15.85C138.4 16.15 138.4 16.35 138.4 16.65C138.4 16.75 138.4 16.75 138.3 16.85C137.5 17.45 136.8 17.95 136 18.55C136 18.55 135.9 18.55 135.8 18.55C135.3 18.35 134.8 18.25 134.3 18.05C134.2 18.05 134.2 17.95 134.2 17.95C134 17.45 133.9 16.85 133.7 16.35C133.7 16.25 133.7 16.25 133.7 16.15C134.4 15.05 135.4 14.35 136.6 13.85H136.7C137.2 14.25 137.7 14.55 138.2 14.95L138.3 15.05C138.4 15.35 138.4 15.55 138.4 15.85Z" fill="#00B74A"/>
<path d="M138.9 15.85C138.9 15.55 138.9 15.35 138.9 15.05C138.9 14.95 138.9 14.95 139 14.95C139.5 14.55 140 14.25 140.5 13.85H140.6C141.8 14.25 142.8 15.05 143.5 16.15C143.5 16.25 143.5 16.25 143.5 16.35C143.3 16.85 143.2 17.45 143 17.95C143 18.05 142.9 18.05 142.9 18.05C142.4 18.25 141.9 18.35 141.4 18.55C141.3 18.55 141.3 18.55 141.2 18.55C140.4 18.05 139.7 17.45 138.9 16.95C138.9 16.95 138.8 16.85 138.8 16.75C138.9 16.35 138.9 16.15 138.9 15.85Z" fill="#00B74A"/>
<path d="M138.8 21.55C139.2 21.55 139.7 21.55 140.1 21.55C140.2 21.55 140.2 21.55 140.3 21.65C140.6 21.95 140.9 22.25 141.2 22.55L141.3 22.65C141.2 23.05 141.2 23.35 141.1 23.75C141.1 23.75 141.1 23.85 141 23.85C140.2 24.25 139.2 24.45 138.3 24.35C137.7 24.35 137 24.15 136.4 23.85C136.3 23.85 136.3 23.75 136.3 23.65C136.3 23.35 136.2 23.05 136.2 22.75C136.2 22.65 136.2 22.65 136.3 22.55C136.7 22.15 137 21.85 137.4 21.45C137.4 21.45 137.5 21.35 137.6 21.35C137.9 21.55 138.3 21.55 138.8 21.55Z" fill="#00B74A"/>
<path d="M133.2 19.35C133.2 19.25 133.2 19.15 133.3 19.15C133.6 18.95 134 18.65 134.3 18.45C134.3 18.45 134.4 18.35 134.5 18.45C134.9 18.65 135.4 18.75 135.8 18.85C135.9 18.85 135.9 18.95 135.9 18.95C136.2 19.75 136.4 20.65 136.7 21.45C136.7 21.55 136.7 21.55 136.7 21.65C136.4 21.95 136 22.35 135.7 22.65C135.7 22.65 135.6 22.75 135.5 22.75C135.1 22.65 134.7 22.65 134.3 22.55C134.2 22.55 134.1 22.45 134.1 22.45C133.6 21.45 133.3 20.45 133.2 19.35Z" fill="#00B74A"/>
<path d="M144.5 19.55C144.5 20.65 144.1 21.65 143.5 22.55L143.4 22.65C142.9 22.75 142.4 22.85 141.8 22.85H141.7C141.3 22.55 141 22.15 140.7 21.85V21.75C141 20.85 141.3 20.05 141.6 19.15L141.7 19.05C142.2 18.85 142.7 18.75 143.2 18.55H143.3C143.7 18.85 144.1 19.15 144.5 19.45C144.6 19.45 144.5 19.55 144.5 19.55Z" fill="#00B74A"/>
<path d="M52 37.25V33.85L54.9 35.55L57.8 37.25L54.9 38.95L52 40.55V37.25Z" fill="#00B74A"/>
<path d="M28.7 15.85C30.9 21.25 28.3 27.35 22.9 29.55C17.5 31.75 11.4 29.05 9.3 23.75C7.2 18.45 9.7 12.25 15 10.05C18.9 8.45 23.4 9.35 26.4 12.35C27.4 13.35 28.2 14.55 28.7 15.85ZM28.7 20.45C28.6 20.55 28.6 20.55 28.5 20.65C27.9 21.05 27.3 21.45 26.7 21.65L24.4 26.05C24.6 26.55 24.7 27.15 24.8 27.65C25.2 27.35 25.6 27.05 26 26.65C27.6 25.05 28.6 22.85 28.7 20.45ZM27.9 15.75C26.9 13.45 25 11.65 22.7 10.75C22.7 10.95 22.7 11.05 22.7 11.25L25.8 14.75C25.9 14.75 26 14.85 26.1 14.85C26.7 14.95 27.3 15.35 27.9 15.75ZM23.8 25.75L26.1 21.55C26 21.35 25.9 21.25 25.8 21.05C25.3 20.15 24.8 19.25 24.2 18.45L19.5 18.95C19.3 19.35 19 19.85 18.8 20.25C18.5 20.95 18.1 21.55 17.8 22.25L20.1 26.15C21.3 26.05 22.6 25.95 23.8 25.75ZM25.2 15.05L22.1 11.55C21.7 11.55 21.2 11.55 20.8 11.55C20.1 11.55 19.4 11.65 18.7 11.75C18.6 11.75 18.5 11.75 18.4 11.85L17.1 15.65L17.8 16.35C18.3 16.95 18.9 17.55 19.4 18.15C19.5 18.25 19.5 18.25 19.6 18.35L24.1 17.85C24.3 17.25 24.6 16.65 24.8 16.15C25 15.65 25.1 15.35 25.2 15.05ZM19.5 26.45L17.3 22.65C17.3 22.65 17.2 22.65 17.1 22.65C15.9 22.45 14.8 22.25 13.6 21.95C13.5 21.95 13.5 21.95 13.5 21.95L11.7 24.75C11.8 24.95 11.9 25.15 12 25.35C12.4 26.05 12.9 26.85 13.5 27.45L18.2 28.25C18.3 28.15 18.3 28.05 18.4 27.95C18.7 27.55 19.1 26.95 19.5 26.45ZM14.1 28.25C15.7 29.15 17.6 29.65 19.4 29.55C19 29.45 18.5 29.25 18.1 29.05C18.1 29.05 18 29.05 18 28.95L14.1 28.25ZM16.6 15.15L17.8 11.55C17.2 11.15 16.5 10.75 15.9 10.55C14.5 11.05 13.2 11.85 12.1 12.95C12 13.05 11.9 13.15 11.8 13.35C11.6 13.65 11.5 13.95 11.3 14.25C11.1 14.65 11 15.05 10.8 15.45C10.8 15.55 10.8 15.55 10.8 15.65L13.1 17.05C14 16.45 15 15.95 15.9 15.55C16.1 15.35 16.4 15.25 16.6 15.15ZM11.3 24.25L13.1 21.35C12.8 20.15 12.7 18.85 12.7 17.55V17.45L10.3 16.05C10.2 16.15 10.1 16.25 10.1 16.35C9.8 16.75 9.6 17.05 9.4 17.45C9 19.25 9.1 21.15 9.7 22.95C10.1 23.35 10.6 23.75 11.1 24.05C11.2 24.15 11.2 24.25 11.3 24.25Z" fill="#282828"/>
<path d="M28.6 20.65C28.7 20.65 28.7 20.55 28.8 20.45C28.6 22.75 27.6 24.95 26 26.65C25.6 27.05 25.2 27.35 24.8 27.65C24.7 27.15 24.6 26.55 24.4 26.05L26.7 21.65C27.4 21.45 28 21.05 28.6 20.65Z" fill="white"/>
<path d="M25.9 12.85C26.7 13.65 27.4 14.65 27.9 15.75C27.3 15.35 26.7 15.05 26 14.75C25.9 14.75 25.8 14.65 25.7 14.65L22.6 11.15C22.6 11.05 22.6 10.85 22.6 10.65C23.9 11.15 25 11.95 25.9 12.85Z" fill="white"/>
<path d="M26.1 21.55L23.8 25.75C22.6 25.95 21.3 26.05 20.1 26.15L17.8 22.25C18.2 21.55 18.5 20.95 18.8 20.25C19 19.85 19.3 19.35 19.5 18.95L24.2 18.45C24.8 19.25 25.3 20.15 25.8 21.05C25.9 21.15 26 21.35 26.1 21.55Z" fill="white"/>
<path d="M22.1 11.45L25.2 14.95C25.1 15.25 25 15.65 24.9 15.95C24.7 16.55 24.4 17.15 24.2 17.65L19.7 18.15C19.6 18.05 19.6 18.05 19.5 17.95C19 17.35 18.4 16.75 17.9 16.15L17.2 15.45L18.5 11.65C18.6 11.65 18.7 11.65 18.8 11.55C19.5 11.45 20.2 11.45 20.9 11.35C21.2 11.45 21.6 11.45 22.1 11.45Z" fill="white"/>
<path d="M17.3 22.65L19.5 26.45C19.1 26.95 18.7 27.55 18.3 28.05C18.2 28.15 18.2 28.25 18.1 28.35L13.4 27.55C12.9 26.85 12.4 26.15 11.9 25.45C11.8 25.25 11.7 25.05 11.6 24.85L13.4 21.95H13.5C14.6 22.25 15.8 22.45 17 22.65C17.2 22.65 17.3 22.65 17.3 22.65Z" fill="white"/>
<path d="M19.4 29.55C17.5 29.65 15.7 29.15 14.1 28.25L18.1 28.95C18.1 28.95 18.2 28.95 18.2 29.05C18.6 29.25 19 29.35 19.4 29.55Z" fill="white"/>
<path d="M17.8 11.55L16.6 15.15C16.4 15.25 16.1 15.35 15.9 15.45C14.9 15.85 14 16.35 13.1 16.95L10.8 15.55C10.8 15.45 10.8 15.45 10.8 15.35C11 14.95 11.1 14.55 11.3 14.15C11.4 13.85 11.6 13.55 11.8 13.25C11.9 13.15 12 13.05 12.1 12.85C13.2 11.75 14.5 10.95 15.9 10.45C16.6 10.75 17.2 11.15 17.8 11.55Z" fill="white"/>
<path d="M13.1 21.35L11.3 24.25C11.3 24.25 11.2 24.25 11.2 24.15C10.7 23.85 10.2 23.45 9.8 23.05C9.2 21.25 9.1 19.35 9.5 17.55C9.7 17.15 9.9 16.75 10.2 16.45C10.3 16.35 10.3 16.25 10.4 16.15L12.8 17.55V17.65C12.7 18.85 12.8 20.05 13.1 21.35Z" fill="white"/>
</g>
<defs>
<clipPath id="clip0_1_2916">
<rect width="149.7" height="48.5" fill="white" transform="translate(0 0.75)"/>
</clipPath>
</defs>
</svg>
