<svg width="19" height="20" viewBox="0 0 19 20" fill="none" xmlns="http://www.w3.org/2000/svg">
<path d="M8.30049 14.8979C9.08842 14.8979 9.86864 14.7427 10.5966 14.4411C11.3245 14.1396 11.986 13.6976 12.5431 13.1405C13.1003 12.5833 13.5422 11.9219 13.8438 11.194C14.1453 10.466 14.3005 9.68579 14.3005 8.89786C14.3005 8.10993 14.1453 7.32971 13.8438 6.60176C13.5422 5.8738 13.1003 5.21237 12.5431 4.65522C11.986 4.09807 11.3245 3.65611 10.5966 3.35458C9.86864 3.05305 9.08842 2.89786 8.30049 2.89786C6.70919 2.89786 5.18307 3.53 4.05785 4.65522C2.93263 5.78044 2.30049 7.30656 2.30049 8.89786C2.30049 10.4892 2.93263 12.0153 4.05785 13.1405C5.18307 14.2657 6.70919 14.8979 8.30049 14.8979ZM14.6205 13.8039L18.2005 17.3839C18.2959 17.4762 18.372 17.5866 18.4244 17.7086C18.4767 17.8307 18.5042 17.9619 18.5052 18.0947C18.5063 18.2274 18.4809 18.3591 18.4305 18.482C18.3802 18.6048 18.3058 18.7164 18.2119 18.8103C18.1179 18.9041 18.0062 18.9783 17.8833 19.0284C17.7603 19.0786 17.6286 19.1038 17.4959 19.1026C17.3631 19.1014 17.2319 19.0737 17.1099 19.0212C16.988 18.9687 16.8777 18.8924 16.7855 18.7969L13.2055 15.2169C11.598 16.4647 9.57528 17.053 7.54924 16.8621C5.5232 16.6711 3.6461 15.7152 2.30004 14.1889C0.953988 12.6627 0.240176 10.6808 0.303917 8.64678C0.367658 6.61276 1.20416 4.67948 2.64314 3.2405C4.08211 1.80153 6.01539 0.965024 8.04941 0.901283C10.0834 0.837542 12.0653 1.55135 13.5916 2.89741C15.1178 4.24346 16.0737 6.12057 16.2647 8.14661C16.4557 10.1727 15.8673 12.1953 14.6195 13.8029L14.6205 13.8039Z" fill="#A9B1C1"/>
</svg>
