<svg width="31" height="31" viewBox="0 0 31 31" fill="none" xmlns="http://www.w3.org/2000/svg">
<path d="M19.0189 0.72784H11.2834L10.396 5.14193C9.66126 5.46929 8.96261 5.87143 8.31123 6.34193L4.01827 4.89784L0.151855 11.5578L3.55468 14.5306C3.4725 15.3267 3.4725 16.129 3.55468 16.9251L0.151855 19.8978L4.01964 26.5578L8.31123 25.1151C8.9586 25.5815 9.65535 25.9851 10.396 26.3138L11.2834 30.7278H19.0189L19.9063 26.3138C20.6411 25.9864 21.3397 25.5842 21.9911 25.1137L26.2841 26.5578L30.1519 19.8978L26.7477 16.9251C26.8298 16.129 26.8298 15.3267 26.7477 14.5306L30.1505 11.5578L26.2827 4.89784L21.9925 6.34057C21.341 5.87054 20.6424 5.46885 19.9077 5.14193L19.0189 0.72784ZM15.1512 21.1824C13.6961 21.1824 12.3007 20.6077 11.2718 19.5848C10.243 18.5619 9.66495 17.1745 9.66495 15.7278C9.66495 14.2812 10.243 12.8938 11.2718 11.8709C12.3007 10.848 13.6961 10.2733 15.1512 10.2733C16.6062 10.2733 18.0016 10.848 19.0305 11.8709C20.0594 12.8938 20.6374 14.2812 20.6374 15.7278C20.6374 17.1745 20.0594 18.5619 19.0305 19.5848C18.0016 20.6077 16.6062 21.1824 15.1512 21.1824Z" fill="#A9B1C1"/>
</svg>
